<svg width="169" height="60" viewBox="0 0 169 60" fill="none" xmlns="http://www.w3.org/2000/svg">
<g filter="url(#filter0_i_1744_219)">
<g filter="url(#filter1_b_1744_219)">
<path d="M9.62 47.9C9.26 47.66 8.86 47.06 8.42 46.1C8.02 45.14 7.82 43.64 7.82 41.6C7.82 40.28 8.08 38.94 8.6 37.58C9.12 36.18 9.84 34.9 10.76 33.74C11.68 32.54 12.76 31.58 14 30.86C15.24 30.14 16.58 29.78 18.02 29.78C19.22 29.78 20.12 30.16 20.72 30.92C21.32 31.64 21.62 32.46 21.62 33.38C21.62 34.42 21.18 35.6 20.3 36.92C19.42 38.2 18.1 39.3 16.34 40.22C14.62 41.14 12.46 41.6 9.86 41.6C8.38 41.6 6.94 41.4 5.54 41C4.18 40.56 3.06 39.86 2.18 38.9C1.3 37.94 0.86 36.68 0.86 35.12C0.86 33.08 1.5 31.22 2.78 29.54C4.1 27.86 5.8 26.52 7.88 25.52C10 24.52 12.24 24.02 14.6 24.02C15.28 24.02 16.16 24.1 17.24 24.26C18.32 24.38 19.28 24.62 20.12 24.98C20.96 25.34 21.38 25.84 21.38 26.48C21.38 26.76 21.28 26.96 21.08 27.08C20.88 27.16 20.64 27.2 20.36 27.2C19.32 27.2 18.3 26.92 17.3 26.36C16.3 25.76 15.46 24.98 14.78 24.02C14.14 23.06 13.82 22.02 13.82 20.9C13.82 18.7 14.48 16.72 15.8 14.96C17.16 13.16 18.92 11.74 21.08 10.7C23.28 9.66 25.64 9.14 28.16 9.14C30.72 9.14 32.64 9.6 33.92 10.52C35.2 11.4 35.84 12.62 35.84 14.18C35.84 15.54 35.16 16.88 33.8 18.2C32.48 19.52 30.66 20.6 28.34 21.44C26.02 22.28 23.4 22.7 20.48 22.7C17.32 22.7 14.74 22.4 12.74 21.8C10.74 21.2 9.18 20.48 8.06 19.64C6.94 18.76 6.14 17.94 5.66 17.18C5.22 16.38 4.94 15.82 4.82 15.5C4.7 15.18 4.7 15 4.82 14.96C4.94 14.88 5.1 14.94 5.3 15.14C5.42 15.34 5.66 15.8 6.02 16.52C6.42 17.24 7.08 18.02 8 18.86C8.96 19.7 10.36 20.44 12.2 21.08C14.04 21.68 16.48 21.98 19.52 21.98C21.2 21.98 22.94 21.78 24.74 21.38C26.58 20.98 28.26 20.42 29.78 19.7C31.34 18.98 32.6 18.14 33.56 17.18C34.52 16.18 35 15.1 35 13.94C35 12.74 34.5 11.74 33.5 10.94C32.5 10.14 30.94 9.74 28.82 9.74C27.02 9.74 25.34 10.16 23.78 11C22.22 11.84 20.84 12.9 19.64 14.18C18.48 15.42 17.56 16.7 16.88 18.02C16.2 19.3 15.86 20.38 15.86 21.26C15.86 22.14 16.08 23 16.52 23.84C17 24.68 17.58 25.36 18.26 25.88C18.98 26.4 19.7 26.66 20.42 26.66C20.7 26.66 20.84 26.56 20.84 26.36C20.84 26.2 20.66 26 20.3 25.76C19.94 25.52 19.44 25.32 18.8 25.16C18.2 24.96 17.5 24.86 16.7 24.86C15.1 24.86 13.52 25.2 11.96 25.88C10.4 26.56 8.96 27.46 7.64 28.58C6.36 29.66 5.32 30.86 4.52 32.18C3.76 33.5 3.38 34.8 3.38 36.08C3.38 37.04 3.6 37.88 4.04 38.6C4.52 39.32 5.2 39.9 6.08 40.34C6.96 40.74 8.06 40.94 9.38 40.94C10.7 40.94 12.02 40.66 13.34 40.1C14.66 39.5 15.86 38.74 16.94 37.82C18.06 36.9 18.94 35.96 19.58 35C20.26 34 20.6 33.12 20.6 32.36C20.6 31.76 20.38 31.28 19.94 30.92C19.5 30.52 18.88 30.32 18.08 30.32C16.76 30.32 15.52 30.68 14.36 31.4C13.2 32.08 12.16 33 11.24 34.16C10.36 35.28 9.66 36.54 9.14 37.94C8.62 39.3 8.38 40.66 8.42 42.02C8.46 43.26 8.6 44.36 8.84 45.32C9.12 46.32 9.5 47.08 9.98 47.6C10.06 47.72 10.08 47.84 10.04 47.96C10 48.08 9.86 48.06 9.62 47.9ZM42.2159 30.26C41.6559 30.26 41.2359 30.14 40.9559 29.9C40.7159 29.62 40.5959 29.3 40.5959 28.94C40.5959 28.58 40.7359 28.24 41.0159 27.92C41.3359 27.56 41.7559 27.38 42.2759 27.38C42.5959 27.38 42.8759 27.42 43.1159 27.5C43.3559 27.58 43.4759 27.62 43.4759 27.62C43.5159 27.22 43.4159 26.88 43.1759 26.6C42.9359 26.28 42.4759 26.12 41.7959 26.12C41.1559 26.12 40.3759 26.4 39.4559 26.96C38.5359 27.52 37.5759 28.26 36.5759 29.18C35.6159 30.1 34.6959 31.1 33.8159 32.18C32.9759 33.26 32.2959 34.36 31.7759 35.48C31.2559 36.56 30.9959 37.54 30.9959 38.42C30.9959 39.42 31.3159 40.08 31.9559 40.4C32.5959 40.72 33.2959 40.88 34.0559 40.88C35.4959 40.88 36.9159 40.54 38.3159 39.86C39.7159 39.14 40.9959 38.28 42.1559 37.28C43.3559 36.24 44.3759 35.24 45.2159 34.28C46.0559 33.32 46.6559 32.58 47.0159 32.06L47.5559 32.42C47.2359 32.9 46.6359 33.64 45.7559 34.64C44.8759 35.64 43.7959 36.68 42.5159 37.76C41.2759 38.8 39.8959 39.7 38.3759 40.46C36.8559 41.18 35.2559 41.54 33.5759 41.54C32.2159 41.54 31.0759 41.24 30.1559 40.64C29.1959 40 28.7159 39.02 28.7159 37.7C28.7159 36.58 29.0359 35.34 29.6759 33.98C30.3159 32.58 31.1959 31.26 32.3159 30.02C33.4759 28.74 34.8359 27.7 36.3959 26.9C37.9959 26.06 39.7559 25.64 41.6759 25.64C42.4359 25.64 43.0959 25.8 43.6559 26.12C44.2159 26.44 44.4959 27 44.4959 27.8C44.4959 28.52 44.2359 29.12 43.7159 29.6C43.2359 30.04 42.7359 30.26 42.2159 30.26ZM59.1636 25.7C61.1636 25.7 62.1636 26.66 62.1636 28.58C62.1636 30.06 61.8236 31.58 61.1436 33.14C60.4636 34.66 59.5436 36.06 58.3836 37.34C57.2236 38.58 55.9636 39.6 54.6036 40.4C53.2436 41.16 51.8636 41.54 50.4636 41.54C49.3836 41.54 48.4836 41.28 47.7636 40.76C47.0036 40.2 46.6236 39.3 46.6236 38.06C46.6236 36.9 46.9636 35.62 47.6436 34.22C48.3236 32.78 49.2436 31.42 50.4036 30.14C51.6036 28.86 52.9436 27.8 54.4236 26.96C55.9436 26.12 57.5236 25.7 59.1636 25.7ZM59.8236 26.54C59.1436 26.54 58.3436 26.84 57.4236 27.44C56.5036 28.04 55.5636 28.82 54.6036 29.78C53.6436 30.74 52.7436 31.78 51.9036 32.9C51.1036 33.98 50.4436 35.04 49.9236 36.08C49.4436 37.12 49.2036 38 49.2036 38.72C49.2036 39.52 49.4236 40.08 49.8636 40.4C50.3036 40.68 50.8036 40.82 51.3636 40.82C52.2836 40.82 53.3236 40.44 54.4836 39.68C55.6436 38.88 56.7636 37.88 57.8436 36.68C58.9236 35.48 59.8036 34.22 60.4836 32.9C61.2036 31.54 61.5636 30.3 61.5636 29.18C61.5636 28.14 61.3836 27.44 61.0236 27.08C60.6636 26.72 60.2636 26.54 59.8236 26.54ZM60.9036 32.72C61.1036 32.72 61.1836 32.8 61.1436 32.96C61.1436 33.08 61.0436 33.14 60.8436 33.14C60.6836 33.14 60.4436 33.36 60.1236 33.8C59.8436 34.2 59.5836 34.62 59.3436 35.06C59.1036 35.5 58.9836 35.74 58.9836 35.78C58.9836 36.7 59.3236 37.16 60.0036 37.16C60.6436 37.16 61.3636 36.86 62.1636 36.26C63.0036 35.66 63.8036 34.98 64.5636 34.22C65.3636 33.42 66.0036 32.72 66.4836 32.12L66.9636 32.54C66.4436 33.14 65.7836 33.86 64.9836 34.7C64.1836 35.5 63.3436 36.22 62.4636 36.86C61.5836 37.46 60.7636 37.76 60.0036 37.76C59.3636 37.76 58.9236 37.62 58.6836 37.34C58.4436 37.06 58.3236 36.56 58.3236 35.84C58.3236 34.88 58.6436 34.12 59.2836 33.56C59.9636 33 60.5036 32.72 60.9036 32.72ZM80.8803 41.54C78.7603 41.54 77.7003 40.92 77.7003 39.68C77.7003 38.88 77.9603 38.02 78.4803 37.1C79.0403 36.18 79.7203 35.26 80.5203 34.34C81.3203 33.38 82.1203 32.44 82.9203 31.52C83.7603 30.6 84.4403 29.76 84.9603 29C85.5203 28.2 85.8003 27.52 85.8003 26.96C85.8003 26.76 85.7003 26.6 85.5003 26.48C85.3403 26.32 85.1003 26.24 84.7803 26.24C84.3003 26.24 83.6203 26.48 82.7403 26.96C81.9003 27.44 80.8203 28.26 79.5003 29.42C78.2203 30.54 76.7003 32.06 74.9403 33.98C73.1803 35.86 71.1603 38.22 68.8803 41.06C68.5203 40.98 67.9803 40.94 67.2603 40.94C66.5403 40.94 65.9203 41.02 65.4003 41.18C66.5603 39.5 67.7003 37.86 68.8203 36.26C69.9403 34.66 70.9603 33.2 71.8803 31.88C72.8403 30.56 73.6003 29.48 74.1603 28.64C74.7203 27.76 75.0003 27.22 75.0003 27.02C75.0003 26.66 74.8203 26.48 74.4603 26.48C74.0603 26.48 73.5603 26.8 72.9603 27.44C72.3603 28.04 71.7003 28.82 70.9803 29.78C70.2603 30.7 69.5203 31.64 68.7603 32.6L68.2203 32.24C69.0203 31.32 69.8003 30.36 70.5603 29.36C71.3203 28.36 72.1003 27.5 72.9003 26.78C73.7003 26.06 74.5403 25.7 75.4203 25.7C75.8603 25.7 76.2603 25.82 76.6203 26.06C77.0203 26.26 77.2203 26.6 77.2203 27.08C77.2203 27.52 77.0403 28.06 76.6803 28.7C76.3603 29.3 75.9203 30 75.3603 30.8C74.8003 31.56 74.1603 32.42 73.4403 33.38C72.7603 34.3 72.0403 35.3 71.2803 36.38L71.3403 36.74C73.4603 34.42 75.2403 32.54 76.6803 31.1C78.1603 29.66 79.3803 28.56 80.3403 27.8C81.3403 27 82.2003 26.46 82.9203 26.18C83.6803 25.86 84.4003 25.7 85.0803 25.7C86.0003 25.7 86.6603 25.9 87.0603 26.3C87.4603 26.66 87.6603 27.16 87.6603 27.8C87.6603 28.76 87.3803 29.78 86.8203 30.86C86.2603 31.9 85.5603 32.94 84.7203 33.98C83.9203 34.98 83.1003 35.92 82.2603 36.8C81.4603 37.64 80.7803 38.36 80.2203 38.96C79.6603 39.56 79.3803 39.96 79.3803 40.16C79.3803 40.4 79.4403 40.58 79.5603 40.7C79.7203 40.82 80.1003 40.88 80.7003 40.88C82.1803 40.88 83.5803 40.42 84.9003 39.5C86.2603 38.58 87.5603 37.46 88.8003 36.14C90.0403 34.78 91.2003 33.44 92.2803 32.12L92.7603 32.54C91.6803 33.82 90.5003 35.16 89.2203 36.56C87.9403 37.96 86.6003 39.14 85.2003 40.1C83.8003 41.06 82.3603 41.54 80.8803 41.54ZM106.045 15.08C106.405 15.24 106.925 15.32 107.605 15.32C108.325 15.28 108.885 15.22 109.285 15.14C108.005 16.9 106.585 18.84 105.025 20.96C103.465 23.08 101.885 25.2 100.285 27.32C98.7252 29.4 97.2652 31.36 95.9052 33.2C94.5852 35 93.5252 36.52 92.7252 37.76C91.9252 39 91.5252 39.78 91.5252 40.1C91.5252 40.34 91.6652 40.52 91.9452 40.64C92.1852 40.76 92.5052 40.82 92.9052 40.82C93.7852 40.82 94.7452 40.52 95.7852 39.92C96.8652 39.28 97.9252 38.5 98.9652 37.58C100.045 36.62 101.025 35.66 101.905 34.7C102.825 33.7 103.545 32.84 104.065 32.12L104.545 32.48C103.985 33.2 103.245 34.06 102.325 35.06C101.405 36.06 100.385 37.06 99.2652 38.06C98.1452 39.06 96.9852 39.9 95.7852 40.58C94.6252 41.22 93.5052 41.54 92.4252 41.54C91.6652 41.54 91.0652 41.38 90.6252 41.06C90.1452 40.78 89.9052 40.28 89.9052 39.56C89.9052 38.92 90.2852 37.94 91.0452 36.62C91.8052 35.26 92.7852 33.7 93.9852 31.94C95.2252 30.18 96.5652 28.32 98.0052 26.36C99.4452 24.36 100.865 22.4 102.265 20.48C103.705 18.52 104.965 16.72 106.045 15.08ZM99.4452 21.8C99.0452 21.8 98.8452 21.68 98.8452 21.44C98.8452 21.24 99.0452 21.14 99.4452 21.14H110.845C110.965 21.14 111.085 21.16 111.205 21.2C111.365 21.24 111.445 21.32 111.445 21.44C111.445 21.6 111.365 21.7 111.205 21.74C111.085 21.78 110.965 21.8 110.845 21.8H99.4452ZM105.746 33.14C105.586 33.3 105.466 33.32 105.386 33.2C105.306 33.04 105.286 32.88 105.326 32.72C106.006 32.04 106.666 31.24 107.306 30.32C107.986 29.4 108.546 28.54 108.986 27.74C109.466 26.94 109.746 26.4 109.826 26.12C109.906 26.12 110.026 26.06 110.186 25.94C110.386 25.82 110.566 25.78 110.726 25.82C110.686 26.1 110.626 26.36 110.546 26.6C110.506 26.84 110.646 27.06 110.966 27.26C111.286 27.46 111.946 27.66 112.946 27.86C113.946 28.06 115.466 28.28 117.506 28.52C117.706 28.56 117.846 28.64 117.926 28.76C118.046 28.84 117.986 28.98 117.746 29.18C116.986 29.78 116.146 30.54 115.226 31.46C114.306 32.38 113.406 33.36 112.526 34.4C111.686 35.4 110.986 36.38 110.426 37.34C109.906 38.3 109.646 39.1 109.646 39.74C109.646 40.46 109.966 40.82 110.606 40.82C111.406 40.82 112.306 40.5 113.306 39.86C114.346 39.22 115.386 38.44 116.426 37.52C117.466 36.56 118.426 35.6 119.306 34.64C120.226 33.64 120.986 32.82 121.586 32.18L122.066 32.54C121.506 33.1 120.786 33.88 119.906 34.88C119.026 35.88 118.026 36.9 116.906 37.94C115.826 38.94 114.666 39.8 113.426 40.52C112.186 41.2 110.906 41.54 109.586 41.54C108.826 41.54 108.146 41.36 107.546 41C106.946 40.68 106.646 40.08 106.646 39.2C106.646 38.36 107.006 37.48 107.726 36.56C108.446 35.64 109.346 34.72 110.426 33.8C111.506 32.84 112.626 31.94 113.786 31.1C114.986 30.22 116.046 29.42 116.966 28.7L117.386 29.24C116.986 29.08 116.286 28.94 115.286 28.82C114.286 28.66 113.246 28.46 112.166 28.22C111.086 27.94 110.146 27.58 109.346 27.14C108.586 26.7 108.206 26.1 108.206 25.34C108.206 24.94 108.366 24.46 108.686 23.9C109.046 23.3 109.526 23 110.126 23C110.686 23 111.066 23.12 111.266 23.36C111.466 23.56 111.566 23.84 111.566 24.2C111.566 24.44 111.366 24.94 110.966 25.7C110.566 26.42 110.066 27.28 109.466 28.28C108.866 29.24 108.226 30.16 107.546 31.04C106.906 31.92 106.306 32.62 105.746 33.14ZM122.108 41.54C121.548 41.54 120.928 41.38 120.248 41.06C119.528 40.78 119.168 40.3 119.168 39.62C119.168 38.78 119.548 37.72 120.308 36.44C121.068 35.16 122.008 33.84 123.128 32.48C124.208 31.12 125.268 29.84 126.308 28.64C127.348 27.44 128.128 26.5 128.648 25.82C129.088 25.86 129.608 25.88 130.208 25.88C130.848 25.88 131.408 25.86 131.888 25.82C131.328 26.5 130.588 27.36 129.668 28.4C128.788 29.44 127.848 30.56 126.848 31.76C125.888 32.92 124.948 34.06 124.028 35.18C123.148 36.3 122.428 37.3 121.868 38.18C121.308 39.06 121.028 39.7 121.028 40.1C121.028 40.38 121.148 40.58 121.388 40.7C121.628 40.82 122.028 40.88 122.588 40.88C123.548 40.88 124.608 40.52 125.768 39.8C126.968 39.04 128.128 38.14 129.248 37.1C130.368 36.06 131.368 35.08 132.248 34.16C133.128 33.2 133.748 32.5 134.108 32.06L134.588 32.48C134.228 32.88 133.608 33.58 132.728 34.58C131.888 35.54 130.868 36.56 129.668 37.64C128.508 38.72 127.268 39.64 125.948 40.4C124.668 41.16 123.388 41.54 122.108 41.54ZM134.108 21.26C133.628 21.26 133.268 21.12 133.028 20.84C132.788 20.52 132.668 20.16 132.668 19.76C132.668 19.32 132.908 18.86 133.388 18.38C133.868 17.9 134.368 17.66 134.888 17.66C135.448 17.66 135.848 17.82 136.088 18.14C136.328 18.42 136.448 18.7 136.448 18.98C136.448 19.58 136.208 20.12 135.728 20.6C135.248 21.04 134.708 21.26 134.108 21.26ZM138.65 41.54C136.77 41.54 135.53 41.12 134.93 40.28C134.33 39.4 134.03 38.48 134.03 37.52C134.03 35.88 134.45 34.36 135.29 32.96C136.13 31.52 137.21 30.24 138.53 29.12C139.85 28 141.21 27.14 142.61 26.54C144.05 25.9 145.33 25.58 146.45 25.58C147.25 25.58 147.89 25.7 148.37 25.94C148.85 26.14 149.09 26.58 149.09 27.26C149.09 27.9 148.71 28.58 147.95 29.3C147.19 30.02 146.23 30.72 145.07 31.4C143.91 32.04 142.69 32.64 141.41 33.2C140.17 33.72 139.03 34.14 137.99 34.46C136.95 34.78 136.19 34.94 135.71 34.94C135.71 34.94 135.71 34.84 135.71 34.64C135.71 34.4 135.71 34.28 135.71 34.28C136.07 34.32 136.69 34.2 137.57 33.92C138.49 33.64 139.51 33.28 140.63 32.84C141.75 32.36 142.83 31.82 143.87 31.22C144.95 30.62 145.83 29.98 146.51 29.3C147.23 28.62 147.59 27.96 147.59 27.32C147.59 27 147.49 26.72 147.29 26.48C147.13 26.24 146.83 26.12 146.39 26.12C145.75 26.12 144.97 26.44 144.05 27.08C143.17 27.68 142.27 28.48 141.35 29.48C140.43 30.48 139.57 31.54 138.77 32.66C137.97 33.78 137.31 34.86 136.79 35.9C136.31 36.9 136.07 37.74 136.07 38.42C136.07 39.22 136.31 39.82 136.79 40.22C137.27 40.62 137.97 40.82 138.89 40.82C140.49 40.82 141.99 40.44 143.39 39.68C144.83 38.88 146.13 37.96 147.29 36.92C148.45 35.84 149.43 34.84 150.23 33.92C151.03 32.96 151.57 32.34 151.85 32.06C151.85 32.06 151.91 32.12 152.03 32.24C152.19 32.36 152.27 32.42 152.27 32.42C151.99 32.74 151.45 33.38 150.65 34.34C149.85 35.3 148.85 36.34 147.65 37.46C146.45 38.58 145.09 39.54 143.57 40.34C142.05 41.14 140.41 41.54 138.65 41.54ZM151.589 42.38C150.189 42.38 149.129 42.12 148.409 41.6C147.689 41.08 147.329 40.38 147.329 39.5C147.329 38.86 147.549 38.3 147.989 37.82C148.389 37.3 148.869 36.9 149.429 36.62C149.989 36.3 150.429 36.14 150.749 36.14C151.189 36.14 151.489 36.24 151.649 36.44C151.769 36.6 151.829 36.78 151.829 36.98C151.829 37.3 151.649 37.56 151.289 37.76C150.889 37.96 150.569 38.06 150.329 38.06C150.049 38.06 149.809 37.98 149.609 37.82C149.369 37.62 149.249 37.52 149.249 37.52C149.049 37.56 148.769 37.78 148.409 38.18C148.049 38.58 147.869 39.02 147.869 39.5C147.869 39.98 148.129 40.44 148.649 40.88C149.169 41.32 150.009 41.54 151.169 41.54C152.369 41.54 153.509 41.14 154.589 40.34C155.709 39.54 156.629 38.52 157.349 37.28C158.069 36.04 158.429 34.78 158.429 33.5C158.429 33.06 158.429 32.48 158.429 31.76C158.429 31 158.429 30.38 158.429 29.9C158.429 29.3 158.529 28.62 158.729 27.86C158.929 27.06 159.149 26.32 159.389 25.64C159.669 24.96 159.889 24.54 160.049 24.38C160.369 24.1 160.609 24.02 160.769 24.14C160.929 24.26 160.969 24.38 160.889 24.5C160.849 24.54 160.589 24.86 160.109 25.46C159.629 26.02 159.029 26.72 158.309 27.56C157.589 28.4 156.869 29.24 156.149 30.08C155.429 30.92 154.789 31.66 154.229 32.3C153.709 32.94 153.409 33.32 153.329 33.44C153.129 33.72 152.949 33.78 152.789 33.62C152.629 33.46 152.669 33.26 152.909 33.02C153.349 32.46 153.889 31.8 154.529 31.04C155.209 30.24 155.889 29.46 156.569 28.7C157.249 27.94 157.829 27.3 158.309 26.78C158.829 26.22 159.109 25.9 159.149 25.82C159.269 25.66 159.369 25.38 159.449 24.98C159.569 24.58 159.709 24.2 159.869 23.84C160.069 23.48 160.309 23.3 160.589 23.3C161.269 23.3 161.609 23.54 161.609 24.02C161.609 24.38 161.329 24.82 160.769 25.34C160.249 25.86 159.949 26.28 159.869 26.6C159.749 27.08 159.749 27.76 159.869 28.64C160.029 29.48 160.189 30.44 160.349 31.52C160.549 32.6 160.649 33.74 160.649 34.94C160.649 36.54 160.329 37.84 159.689 38.84C159.049 39.8 158.249 40.54 157.289 41.06C156.329 41.58 155.329 41.92 154.289 42.08C153.289 42.28 152.389 42.38 151.589 42.38ZM160.829 38.24C159.789 38.24 159.109 38.04 158.789 37.64C158.509 37.24 158.409 36.78 158.489 36.26C158.609 35.7 158.749 35.2 158.909 34.76L159.509 34.82C159.389 35.22 159.269 35.64 159.149 36.08C159.069 36.52 159.129 36.9 159.329 37.22C159.529 37.54 160.049 37.7 160.889 37.7C161.489 37.7 162.169 37.42 162.929 36.86C163.689 36.3 164.429 35.62 165.149 34.82C165.909 34.02 166.549 33.24 167.069 32.48L167.609 32.9C167.089 33.54 166.449 34.28 165.689 35.12C164.969 35.96 164.189 36.7 163.349 37.34C162.509 37.94 161.669 38.24 160.829 38.24Z" fill="#4D4D4D"/>
</g>
</g>
<defs>
<filter id="filter0_i_1744_219" x="0.860001" y="9.13989" width="171.749" height="43" filterUnits="userSpaceOnUse" color-interpolation-filters="sRGB">
<feFlood flood-opacity="0" result="BackgroundImageFix"/>
<feBlend mode="normal" in="SourceGraphic" in2="BackgroundImageFix" result="shape"/>
<feColorMatrix in="SourceAlpha" type="matrix" values="0 0 0 0 0 0 0 0 0 0 0 0 0 0 0 0 0 0 127 0" result="hardAlpha"/>
<feOffset dx="5" dy="4"/>
<feGaussianBlur stdDeviation="3"/>
<feComposite in2="hardAlpha" operator="arithmetic" k2="-1" k3="1"/>
<feColorMatrix type="matrix" values="0 0 0 0 0.666667 0 0 0 0 0.605556 0 0 0 0 0.605556 0 0 0 0.5 0"/>
<feBlend mode="normal" in2="shape" result="effect1_innerShadow_1744_219"/>
</filter>
<filter id="filter1_b_1744_219" x="-3.14" y="5.13989" width="174.749" height="47" filterUnits="userSpaceOnUse" color-interpolation-filters="sRGB">
<feFlood flood-opacity="0" result="BackgroundImageFix"/>
<feGaussianBlur in="BackgroundImageFix" stdDeviation="2"/>
<feComposite in2="SourceAlpha" operator="in" result="effect1_backgroundBlur_1744_219"/>
<feBlend mode="normal" in="SourceGraphic" in2="effect1_backgroundBlur_1744_219" result="shape"/>
</filter>
</defs>
</svg>
